Patient4_TMGait_0pt2_02_right_07_EMG.mot
version=1
nRows=30
nColumns=33
inDegrees=no
endheader
time	1LAddLong	2LGlutMax	3LGlutMed	4LIliopsoas	5LSemiMemb	6LBicFemLong	7LRecFem	8LVastMed	9LVastLat	10LGasMed	11LTibAnt	12lTibPost	13LPeroneusLong	14LSol	15LExtDigLong	16LFlexDigLong	17RAddLong	18RGlutMax	19RGlutMed	20RIliopsoas	21RSemiMemb	22RBicFemLong	23RRecFem	24RVastMed	25RVastLat	26RGasMed	27RTibAnt	28RTibPost	29RPeroneusLong	30RSol	31RExtDigLong	32RFlexDigLong
15.317	0.009308	-0.1622	0.022583	0.011139	0.053406	-0.05661	0.029297	0.004578	0.00061	-0.092926	0.010223	-0.004272	0.048523	0.060577	0.000916	-0.014954	-0.10101	0.33661	0.000153	0.040741	-0.15595	0.072479	-0.14816	0.33783	0.084534	0.027313	0.18478	-0.024719	-0.93979	-0.12863	-0.000153	-0.026855
15.318	-0.000305	-0.15701	-0.009766	0.003967	0.015106	0.031433	0.028534	0.006714	0.004425	-0.082245	0.004425	-0.009003	0.095367	0.028992	-0.004578	-0.016022	-0.10941	0.31509	-0.10742	0.021973	0.15396	0.01709	-0.12711	0.3125	0.083313	0.0177	-0.028992	-0.099182	0.068665	-0.22934	-0.001984	-0.022583
15.319	-0.005798	-0.16266	0.040436	0.000153	0.008545	0.082092	0.030212	0.006104	-0.00061	-0.094757	-0.011444	-0.003052	0.01358	0.061493	0.007019	-0.011902	-0.019226	0.2626	-0.1387	0.012512	0.69611	-0.22888	-0.005951	0.11551	0.05127	0.046539	-0.18188	-0.21912	-0.49759	-0.060577	-0.003815	-0.018311
15.32	-0.003662	-0.1416	0.018768	0.00351	0.003052	0.061035	0.028687	0.004425	0.007019	-0.077667	0.005341	-0.005493	-0.066376	0.057678	-0.000916	-0.00351	0.056915	0.24826	-0.041351	0.027313	0.61035	-0.31982	0.046539	-0.081177	0.024109	-0.030823	-0.23743	0.25421	-1.0919	0.017853	-0.002289	-0.001373
15.321	-0.003967	-0.15259	-0.011749	0.012665	0.018768	0.027161	0.016022	-0.002899	0.00824	-0.042877	0.002136	-0.006104	-0.067444	-0.013885	-0.002899	-0.005798	0.002289	0.30609	-0.13947	0.025024	0.36011	-0.19943	0.017548	-0.14038	0.027924	-0.18082	-0.089417	0.098724	0.13641	-0.044708	-0.010681	-0.010529
15.322	-0.007782	-0.15823	0.03006	0.005341	-0.019531	-0.011292	0.022583	0.001221	0.009308	0.057678	-0.00351	0.003967	-0.052032	-0.006714	-0.002136	-0.005035	-0.051727	0.3241	-0.26886	0.023346	-0.018463	-0.24033	-0.019379	-0.080414	0.039063	-0.22705	-0.11978	0.023499	1.2123	0.11581	-0.002289	-0.003357
15.323	-0.076141	-0.2092	0.053406	-0.002441	0.018311	-0.008545	0.026703	0.007782	0.005493	0.1268	-0.009308	-0.006866	-0.056915	0.033417	0.00351	-0.013123	-0.070648	0.32562	-0.22919	-0.002441	0.072937	-0.17975	-0.010071	-0.011749	0.048065	-0.15686	-0.081024	0.016327	0.6189	0.22339	-0.005798	-0.001526
15.324	0.036774	-0.18616	0.075684	-0.002136	0.011902	-0.008392	0.02594	0.002441	0.003967	0.18326	-0.006409	-0.006561	-0.062408	0.025787	-0.005493	-0.001678	-0.071869	0.35675	-0.081177	0.007935	-0.067596	-0.066528	0.022125	0.10361	0.042419	-0.097351	-0.072937	-0.017395	0.74234	0.27893	-0.005493	-0.005493
15.325	0.04715	-0.19012	0.081787	-0.001221	0.013123	-0.006409	0.0177	-0.004578	0.022583	0.17929	0.013733	0.00061	-0.03006	0.075378	-0.005493	-0.005188	-0.053406	0.39551	0.052795	0.011292	-0.07019	-0.094604	0.022888	0.11063	0.033569	0.097504	-0.04776	-0.034943	0.72235	0.23239	-0.002747	-0.008545
15.326	0.008087	-0.2092	0.053253	-0.002747	0.016022	0.022125	0.018005	-0.001068	0.032196	-0.007935	-0.00946	0.002441	0.008698	0.1239	-0.002136	0.011292	-0.054321	0.39673	-0.23148	0.010681	-0.11765	-0.018616	0.062408	-0.024872	0.023499	0.15366	-0.033875	-0.043182	0.57465	-0.045624	-0.001678	-0.004578
15.327	0.006409	-0.18967	0.033875	0.008698	0.026703	0.041504	0.012817	0.001221	0.026093	-0.23651	-0.007782	-0.00351	0.03479	0.10986	-0.01236	0.000763	-0.073547	0.4451	-0.14664	-0.17929	0.023956	-0.046387	0.064697	0.077057	0.025787	0.06424	-0.013275	-0.000305	-0.11093	-0.10407	-0.001526	-0.015717
15.328	0.009613	-0.17212	0.053101	-0.00351	0.048981	0.016174	0.00473	0.003662	0.020905	-0.17471	0.00473	-0.000458	0.02121	0.10101	-0.022888	-0.003357	-0.054016	0.4602	-0.082703	-0.28503	0.006409	-0.1413	0.081024	0.045013	0.029907	0.013733	0.045166	-0.00473	0.39658	-0.085449	-0.002441	-0.015106
15.329	0.007935	-0.18234	0.077515	0.007782	0.024872	0.045013	0.003662	0.00412	0.026245	-0.10437	-0.006256	0.010071	0.075378	0.048981	-0.023193	0.002747	-0.016632	0.47623	0.16007	-0.26977	0.039673	-0.079498	0.1001	-0.017395	0.014343	0.060577	0.039673	-0.044861	-0.071869	0.065765	-0.003967	-0.012207
15.33	0.005646	-0.17899	0.053406	0.007019	0.009766	0.07309	0.028687	0.007019	0.00473	-0.068359	0.009918	0.006409	0.15839	-0.10422	-0.021667	-0.005798	-0.008698	0.4303	0.21866	0.066986	0.055847	0.074005	0.090027	-0.009766	0.011597	0.069885	0.040436	0.050812	-0.28549	0.27451	-0.000916	-0.021362
15.331	-0.003815	-0.18494	0.043945	0.006409	-0.00824	0.058899	0.009766	-0.000153	0.001526	-0.052643	0.002899	0.011444	0.051422	-0.22446	-0.014343	0.001373	0.037231	0.40054	0.020752	0.41977	-0.09613	0.22522	0.15045	-0.10696	-0.029144	0.040741	-0.029907	-0.014191	0.40955	0.27969	-0.000763	-0.011292
15.332	-0.012512	-0.18997	0.036926	0.005035	0.001831	0.025024	0.008087	0.005951	0.00946	0.037384	-0.014343	0.009308	-0.036011	-0.22644	0.02243	-0.010376	0.070496	0.42511	0.1416	0.37201	-0.12878	0.38345	0.15182	-0.074005	-0.041809	0.067291	-0.036011	-0.050201	0.56503	0.010529	-0.005188	-0.022583
15.333	-0.001831	-0.14297	0.016785	0.000305	-0.011444	-0.032043	-0.001068	0.007477	0.021973	0.16907	-0.008087	0.00946	-0.043945	-0.19043	0.034637	-0.00946	0.095215	0.43427	0.46127	0.12283	-0.072784	0.51529	0.22064	-0.16602	-0.058441	0.066376	0.06485	0.069733	-0.83267	-0.19623	-0.00473	-0.01297
15.334	-0.009613	-0.16388	0.028381	-0.010986	-0.030823	-0.057831	-0.011139	0.006561	0.014954	0.18143	-0.011444	0.005493	-0.04837	-0.34485	0.02655	-0.005341	0.066833	0.30411	0.31708	-0.035248	-0.10498	0.43854	0.18601	-0.20798	-0.041199	0.041504	0.076141	0.034485	-1.6463	-0.08667	-0.012512	-0.001831
15.335	0.032654	-0.12985	0.033875	0.009613	-0.039215	-0.11917	0.004272	0.000458	0.01709	0.079956	0.00351	0.007782	-0.052185	-0.51758	0.004578	-0.001984	0.022278	0.21851	0.021973	-0.036011	-0.12726	0.31494	0.049438	-0.097046	0.063477	0.033112	0.030365	0.002441	-0.74753	-0.16373	-0.001068	-0.005798
15.336	-0.018311	-0.10162	0.014038	0.006714	-0.078583	-0.11292	0.007782	0.004883	0.008698	0.038605	0.024261	0.010376	-0.014191	-0.37293	-0.016479	-0.005951	-0.018616	0.18021	-0.37399	0.05722	0.12833	0.35507	0.003662	-0.088654	0.20569	0.020294	0.03479	-0.008087	-0.12878	-0.30258	0.002136	-0.010681
15.337	-0.007172	-0.12619	-0.003204	0.022278	-0.071106	-0.017242	0.022736	0.003204	0.002747	0.007019	-0.007324	0.011444	0.003204	0.16815	-0.028534	-0.003815	-0.031738	0.13733	-0.19775	0.068207	0.062408	0.31158	-0.077209	-0.066223	0.25269	0.012512	-0.10284	-0.000305	-0.53116	-0.19714	-0.002747	-0.011597
15.338	0.01236	-0.1651	-0.033417	0.022736	-0.053101	0.057678	0.021973	0	-0.011292	-0.068512	-0.00473	0.008392	-0.013123	0.24857	-0.018005	-0.008392	-0.037842	0.18402	-0.23392	0.073547	0.24277	0.1474	-0.007019	0.061493	0.16464	0.015259	-0.087738	-0.006256	-0.058899	-0.16205	-0.003357	-0.006409
15.339	0.019531	-0.15564	-0.02243	0.014496	0.078278	-0.032043	0.027618	0.010986	-0.00412	-0.11459	0.011444	0.002747	-0.009613	0.21744	-0.015106	0.002441	-0.027466	0.23666	0.25787	0.074615	-0.005798	0.036469	0.002594	0.20096	0.14404	0.010223	0.047302	-0.008392	-0.27664	-0.060577	-0.000305	-0.009155
15.34	0.010071	-0.16159	-0.007172	-0.002441	0.045776	-0.084686	0.027161	0.003967	-0.009308	-0.11688	-0.001526	0.007324	-0.023193	0.20783	-0.014801	0.000153	-0.014954	0.21484	0.29541	0.077667	-0.25192	-0.11658	0.000916	0.13306	0.086975	0.009308	0.065613	-0.011902	-0.13504	-0.10117	-0.00473	-0.006409
15.341	0.013275	-0.13351	-0.006561	0.001678	0.036469	-0.050507	0.019073	-0.002747	-0.003967	-0.08606	0.007477	0.000916	-0.019684	0.11215	-0.018463	0.003204	0.016937	0.28	0.23224	0.011292	-0.14648	-0.13458	0.037994	0.076141	-0.021515	0.012817	0.022736	-0.008392	0.28305	-0.11566	-0.00412	-0.002136
15.342	0.009155	-0.1387	0.020752	0.003052	0.055542	-0.06897	0.009155	0.005493	0.000458	-0.058594	-0.005341	0.009003	-0.026398	0.09964	-0.013123	0.002594	0.010071	0.2504	0.31326	-0.017395	-0.15472	-0.067139	0.08667	0.059662	-0.31998	0.019073	0.09491	-0.010223	-0.34698	-0.099487	-0.00412	-0.006409
15.343	0.003357	-0.13825	0.035095	0.002594	0.040283	-0.068054	-0.000763	-0.003204	0.009613	-0.018768	0.005493	0.00473	-0.023041	0.050049	-0.017242	-0.006866	-0.001373	0.16556	0.17716	-0.040436	0.10315	0.20462	0.083466	0.02594	-0.3447	0.020752	0.048065	-0.011749	0.27664	-0.080261	-0.00061	0.001373
15.344	0.011902	-0.12039	0.043182	0.005341	0.033417	-0.026245	0.007324	0.008545	0.007324	0.011139	0.00473	-0.001984	-0.009918	0.001526	0.006409	-0.001984	-0.008698	0.16495	0.3215	-0.041199	0.026245	0.21881	0.015411	0.008087	-0.16098	0.01297	-0.012512	-0.00824	0.37064	-0.017548	-0.000916	-0.000458
15.345	0.006409	-0.092468	0.049133	0.001526	0.019379	0.049896	-0.003815	0.008392	0.010834	0.062256	-0.010529	0.000305	0.010834	0.11795	0.01358	-0.000153	-0.020447	0.18524	0.14893	-0.04303	-0.07309	-0.008087	0.025177	-0.007629	-0.041504	-0.000763	-0.056305	-0.001068	0.40192	-0.054169	-0.000153	-0.007935
15.346	-0.002594	-0.11704	0.022125	0.006256	-0.009003	0.10208	-0.0354	0.002441	0.018005	0.055695	0.007935	0.004425	0.011292	0.12146	0.010376	0.006561	-0.011444	0.14816	-0.13229	-0.03479	0.27771	-0.19684	0	-0.083466	-0.024261	-0.046997	-0.034637	-0.004578	0.75638	-0.070648	0.000458	-0.009003
